<mxfile host="app.diagrams.net" modified="2020-09-05T17:39:34.977Z" agent="5.0 (Windows NT 10.0; Win64; x64) AppleWebKit/537.36 (KHTML, like Gecko) Chrome/85.0.4183.83 Safari/537.36" etag="iumPM8j4PZtqUDxxlAfW" version="13.5.5" type="github" pages="5">
  <diagram id="C5RBs43oDa-KdzZeNtuy" name="MainModule">
    <mxGraphModel dx="2070" dy="1118" grid="1" gridSize="10" guides="1" tooltips="1" connect="1" arrows="1" fold="1" page="1" pageScale="1" pageWidth="1169" pageHeight="827" math="0" shadow="0">
      <root>
        <mxCell id="WIyWlLk6GJQsqaUBKTNV-0" />
        <mxCell id="WIyWlLk6GJQsqaUBKTNV-1" parent="WIyWlLk6GJQsqaUBKTNV-0" />
        <mxCell id="quCtjOQtmMD10TJMmdtv-0" value="GameEngine" style="shape=folder;fontStyle=1;spacingTop=10;tabWidth=40;tabHeight=14;tabPosition=left;html=1;" vertex="1" parent="WIyWlLk6GJQsqaUBKTNV-1">
          <mxGeometry x="470" y="380" width="230" height="120" as="geometry" />
        </mxCell>
        <mxCell id="quCtjOQtmMD10TJMmdtv-1" value="Core" style="shape=module;align=left;spacingLeft=20;align=center;verticalAlign=middle;" vertex="1" parent="WIyWlLk6GJQsqaUBKTNV-1">
          <mxGeometry x="515" y="70" width="140" height="70" as="geometry" />
        </mxCell>
        <mxCell id="quCtjOQtmMD10TJMmdtv-2" value="Gui" style="shape=module;align=left;spacingLeft=20;align=center;verticalAlign=middle;" vertex="1" parent="WIyWlLk6GJQsqaUBKTNV-1">
          <mxGeometry x="900" y="250" width="140" height="70" as="geometry" />
        </mxCell>
        <mxCell id="quCtjOQtmMD10TJMmdtv-3" value="Randering" style="shape=module;align=left;spacingLeft=20;align=center;verticalAlign=middle;" vertex="1" parent="WIyWlLk6GJQsqaUBKTNV-1">
          <mxGeometry x="130" y="250" width="140" height="70" as="geometry" />
        </mxCell>
        <mxCell id="quCtjOQtmMD10TJMmdtv-4" value="Database" style="shape=module;align=left;spacingLeft=20;align=center;verticalAlign=middle;" vertex="1" parent="WIyWlLk6GJQsqaUBKTNV-1">
          <mxGeometry x="130" y="610" width="140" height="70" as="geometry" />
        </mxCell>
        <mxCell id="quCtjOQtmMD10TJMmdtv-5" value="Physic" style="shape=module;align=left;spacingLeft=20;align=center;verticalAlign=middle;" vertex="1" parent="WIyWlLk6GJQsqaUBKTNV-1">
          <mxGeometry x="900" y="610" width="140" height="70" as="geometry" />
        </mxCell>
        <mxCell id="quCtjOQtmMD10TJMmdtv-6" value="" style="endArrow=none;html=1;edgeStyle=orthogonalEdgeStyle;exitX=0;exitY=0;exitDx=230;exitDy=120;exitPerimeter=0;entryX=0.5;entryY=0;entryDx=0;entryDy=0;" edge="1" parent="WIyWlLk6GJQsqaUBKTNV-1" source="quCtjOQtmMD10TJMmdtv-0" target="quCtjOQtmMD10TJMmdtv-5">
          <mxGeometry relative="1" as="geometry">
            <mxPoint x="460" y="580" as="sourcePoint" />
            <mxPoint x="620" y="580" as="targetPoint" />
          </mxGeometry>
        </mxCell>
        <mxCell id="quCtjOQtmMD10TJMmdtv-7" value="parent" style="edgeLabel;resizable=0;html=1;align=left;verticalAlign=bottom;" connectable="0" vertex="1" parent="quCtjOQtmMD10TJMmdtv-6">
          <mxGeometry x="-1" relative="1" as="geometry" />
        </mxCell>
        <mxCell id="quCtjOQtmMD10TJMmdtv-8" value="child" style="edgeLabel;resizable=0;html=1;align=right;verticalAlign=bottom;" connectable="0" vertex="1" parent="quCtjOQtmMD10TJMmdtv-6">
          <mxGeometry x="1" relative="1" as="geometry" />
        </mxCell>
        <mxCell id="quCtjOQtmMD10TJMmdtv-9" value="" style="endArrow=none;html=1;edgeStyle=orthogonalEdgeStyle;entryX=0.5;entryY=1;entryDx=0;entryDy=0;exitX=0;exitY=0;exitDx=230;exitDy=14;exitPerimeter=0;" edge="1" parent="WIyWlLk6GJQsqaUBKTNV-1" source="quCtjOQtmMD10TJMmdtv-0" target="quCtjOQtmMD10TJMmdtv-2">
          <mxGeometry relative="1" as="geometry">
            <mxPoint x="760" y="410" as="sourcePoint" />
            <mxPoint x="1070" y="523.5" as="targetPoint" />
          </mxGeometry>
        </mxCell>
        <mxCell id="quCtjOQtmMD10TJMmdtv-10" value="parent" style="edgeLabel;resizable=0;html=1;align=left;verticalAlign=bottom;" connectable="0" vertex="1" parent="quCtjOQtmMD10TJMmdtv-9">
          <mxGeometry x="-1" relative="1" as="geometry" />
        </mxCell>
        <mxCell id="quCtjOQtmMD10TJMmdtv-11" value="child" style="edgeLabel;resizable=0;html=1;align=right;verticalAlign=bottom;" connectable="0" vertex="1" parent="quCtjOQtmMD10TJMmdtv-9">
          <mxGeometry x="1" relative="1" as="geometry" />
        </mxCell>
        <mxCell id="quCtjOQtmMD10TJMmdtv-12" value="" style="endArrow=none;html=1;edgeStyle=orthogonalEdgeStyle;exitX=0;exitY=0;exitDx=135;exitDy=14;exitPerimeter=0;entryX=0.5;entryY=1;entryDx=0;entryDy=0;" edge="1" parent="WIyWlLk6GJQsqaUBKTNV-1" source="quCtjOQtmMD10TJMmdtv-0" target="quCtjOQtmMD10TJMmdtv-1">
          <mxGeometry relative="1" as="geometry">
            <mxPoint x="720" y="520" as="sourcePoint" />
            <mxPoint x="990" y="630" as="targetPoint" />
          </mxGeometry>
        </mxCell>
        <mxCell id="quCtjOQtmMD10TJMmdtv-13" value="parent" style="edgeLabel;resizable=0;html=1;align=left;verticalAlign=bottom;" connectable="0" vertex="1" parent="quCtjOQtmMD10TJMmdtv-12">
          <mxGeometry x="-1" relative="1" as="geometry" />
        </mxCell>
        <mxCell id="quCtjOQtmMD10TJMmdtv-14" value="child" style="edgeLabel;resizable=0;html=1;align=right;verticalAlign=bottom;" connectable="0" vertex="1" parent="quCtjOQtmMD10TJMmdtv-12">
          <mxGeometry x="1" relative="1" as="geometry" />
        </mxCell>
        <mxCell id="quCtjOQtmMD10TJMmdtv-15" value="" style="endArrow=none;html=1;edgeStyle=orthogonalEdgeStyle;exitX=0;exitY=0;exitDx=0;exitDy=120;exitPerimeter=0;entryX=0.5;entryY=0;entryDx=0;entryDy=0;" edge="1" parent="WIyWlLk6GJQsqaUBKTNV-1" source="quCtjOQtmMD10TJMmdtv-0" target="quCtjOQtmMD10TJMmdtv-4">
          <mxGeometry relative="1" as="geometry">
            <mxPoint x="730" y="530" as="sourcePoint" />
            <mxPoint x="1050" y="540" as="targetPoint" />
          </mxGeometry>
        </mxCell>
        <mxCell id="quCtjOQtmMD10TJMmdtv-16" value="parent" style="edgeLabel;resizable=0;html=1;align=left;verticalAlign=bottom;" connectable="0" vertex="1" parent="quCtjOQtmMD10TJMmdtv-15">
          <mxGeometry x="-1" relative="1" as="geometry" />
        </mxCell>
        <mxCell id="quCtjOQtmMD10TJMmdtv-17" value="child" style="edgeLabel;resizable=0;html=1;align=right;verticalAlign=bottom;" connectable="0" vertex="1" parent="quCtjOQtmMD10TJMmdtv-15">
          <mxGeometry x="1" relative="1" as="geometry" />
        </mxCell>
        <mxCell id="quCtjOQtmMD10TJMmdtv-18" value="" style="endArrow=none;html=1;edgeStyle=orthogonalEdgeStyle;entryX=0.5;entryY=1;entryDx=0;entryDy=0;exitX=0;exitY=0;exitDx=0;exitDy=40.5;exitPerimeter=0;" edge="1" parent="WIyWlLk6GJQsqaUBKTNV-1" source="quCtjOQtmMD10TJMmdtv-0" target="quCtjOQtmMD10TJMmdtv-3">
          <mxGeometry relative="1" as="geometry">
            <mxPoint x="200" y="420" as="sourcePoint" />
            <mxPoint x="1010" y="650" as="targetPoint" />
            <Array as="points">
              <mxPoint x="335" y="421" />
              <mxPoint x="335" y="370" />
              <mxPoint x="200" y="370" />
            </Array>
          </mxGeometry>
        </mxCell>
        <mxCell id="quCtjOQtmMD10TJMmdtv-19" value="parent" style="edgeLabel;resizable=0;html=1;align=left;verticalAlign=bottom;" connectable="0" vertex="1" parent="quCtjOQtmMD10TJMmdtv-18">
          <mxGeometry x="-1" relative="1" as="geometry" />
        </mxCell>
        <mxCell id="quCtjOQtmMD10TJMmdtv-20" value="child" style="edgeLabel;resizable=0;html=1;align=right;verticalAlign=bottom;" connectable="0" vertex="1" parent="quCtjOQtmMD10TJMmdtv-18">
          <mxGeometry x="1" relative="1" as="geometry" />
        </mxCell>
      </root>
    </mxGraphModel>
  </diagram>
  <diagram id="jgNDSw_kGQix8WqcU3k2" name="Core_Module">
    <mxGraphModel dx="2484" dy="1342" grid="1" gridSize="10" guides="1" tooltips="1" connect="1" arrows="1" fold="1" page="1" pageScale="1" pageWidth="1654" pageHeight="1169" math="0" shadow="0">
      <root>
        <mxCell id="jTdmpe4fetkYHvXKVpOT-0" />
        <mxCell id="jTdmpe4fetkYHvXKVpOT-1" parent="jTdmpe4fetkYHvXKVpOT-0" />
      </root>
    </mxGraphModel>
  </diagram>
  <diagram id="vKx9gQcWWqTSZYpaQ0dt" name="Gui_Module">
    <mxGraphModel dx="1242" dy="671" grid="1" gridSize="10" guides="1" tooltips="1" connect="1" arrows="1" fold="1" page="1" pageScale="1" pageWidth="1654" pageHeight="1169" math="0" shadow="0">
      <root>
        <mxCell id="89Zi2tkXLuuMYFYUjvYF-0" />
        <mxCell id="89Zi2tkXLuuMYFYUjvYF-1" parent="89Zi2tkXLuuMYFYUjvYF-0" />
      </root>
    </mxGraphModel>
  </diagram>
  <diagram id="BlJw_thcKvSUn1fT46q0" name="Randering_Module">
    <mxGraphModel dx="1242" dy="671" grid="1" gridSize="10" guides="1" tooltips="1" connect="1" arrows="1" fold="1" page="1" pageScale="1" pageWidth="1654" pageHeight="1169" math="0" shadow="0">
      <root>
        <mxCell id="Otpe04eGBYLJntfpxmae-0" />
        <mxCell id="Otpe04eGBYLJntfpxmae-1" parent="Otpe04eGBYLJntfpxmae-0" />
      </root>
    </mxGraphModel>
  </diagram>
  <diagram id="iWclCFMzvwhvi6FuVpGC" name="Physic_Module">
    <mxGraphModel dx="1242" dy="671" grid="1" gridSize="10" guides="1" tooltips="1" connect="1" arrows="1" fold="1" page="1" pageScale="1" pageWidth="1654" pageHeight="1169" math="0" shadow="0">
      <root>
        <mxCell id="La1wmOSr7Zh6VLsuVsZq-0" />
        <mxCell id="La1wmOSr7Zh6VLsuVsZq-1" parent="La1wmOSr7Zh6VLsuVsZq-0" />
      </root>
    </mxGraphModel>
  </diagram>
</mxfile>
